<?xml version="1.0" standalone="no"?>
<!DOCTYPE svg PUBLIC "-//W3C//DTD SVG 20010904//EN"
 "http://www.w3.org/TR/2001/REC-SVG-20010904/DTD/svg10.dtd">
<svg version="1.0" xmlns="http://www.w3.org/2000/svg"
 width="1280.000000pt" height="1280.000000pt" viewBox="0 0 1280.000000 1280.000000"
 preserveAspectRatio="xMidYMid meet">
<metadata>
Created by potrace 1.15, written by Peter Selinger 2001-2017
</metadata>
<g transform="translate(0.000000,1280.000000) scale(0.100000,-0.100000)"
fill="#2196f3" stroke="none">
<path d="M9690 12186 c-407 -143 -1035 -707 -1305 -1171 -32 -55 -77 -130
-101 -168 -23 -37 -54 -97 -69 -135 -16 -37 -54 -123 -85 -192 -60 -130 -126
-307 -203 -545 -61 -187 -189 -686 -222 -860 -15 -77 -32 -165 -40 -195 -40
-160 -146 -924 -169 -1220 -18 -232 -25 -944 -12 -1290 8 -226 8 -236 -11
-252 -11 -10 -34 -21 -51 -24 -30 -6 -33 -4 -52 37 -11 24 -20 56 -20 70 0 43
-85 327 -137 459 -28 69 -71 193 -96 275 -25 83 -64 210 -86 282 -81 266 -121
537 -121 822 0 123 4 187 25 361 15 121 -28 178 -139 187 -56 5 -65 3 -93 -21
-47 -39 -63 -83 -63 -169 0 -79 29 -370 56 -567 9 -63 19 -142 23 -175 8 -60
29 -155 56 -250 8 -27 22 -81 31 -120 34 -147 130 -445 169 -525 15 -30 38
-84 51 -120 12 -36 33 -88 45 -117 30 -70 19 -98 -46 -114 -41 -10 -75 -35
-114 -84 -9 -12 -21 -15 -40 -10 -32 8 -34 10 -191 136 -371 298 -641 474
-955 622 -253 119 -527 236 -649 277 -91 31 -102 33 -143 22 -93 -25 -132 -78
-118 -161 11 -68 88 -116 206 -130 161 -19 498 -131 650 -215 24 -14 82 -41
129 -62 81 -35 455 -274 584 -373 33 -26 109 -80 169 -122 127 -89 251 -187
352 -279 39 -36 88 -80 109 -99 32 -29 37 -39 34 -70 -2 -29 -7 -37 -26 -39
-14 -2 -34 5 -45 16 -44 39 -164 100 -512 264 -199 93 -787 329 -972 389 -70
23 -207 68 -303 100 -294 96 -864 231 -1225 289 -105 16 -244 39 -310 50 -366
61 -871 88 -1145 61 -135 -13 -500 -82 -638 -120 -135 -37 -438 -163 -596
-248 -53 -28 -227 -147 -366 -249 -175 -129 -234 -299 -176 -513 14 -53 36
-109 51 -130 15 -20 36 -49 47 -66 30 -42 156 -142 268 -210 250 -153 221
-141 370 -159 280 -34 386 -68 573 -183 182 -113 360 -219 392 -236 17 -8 53
-34 80 -56 49 -41 273 -161 299 -161 8 0 62 -47 121 -106 59 -58 125 -119 148
-135 57 -42 383 -366 432 -430 22 -29 91 -97 154 -151 119 -103 232 -167 368
-209 35 -11 93 -35 130 -54 38 -18 104 -43 148 -54 93 -23 275 -51 333 -51 57
0 140 19 182 41 51 28 77 24 117 -16 32 -32 35 -39 30 -78 -9 -61 -50 -200
-87 -292 -17 -44 -51 -139 -75 -212 -24 -73 -51 -145 -59 -160 -8 -16 -18 -46
-22 -67 -3 -21 -17 -57 -30 -80 -20 -35 -24 -55 -24 -137 0 -116 17 -177 69
-250 21 -30 100 -178 176 -329 246 -494 216 -446 321 -515 50 -33 107 -74 126
-90 19 -17 50 -41 69 -52 58 -37 139 -138 164 -206 55 -154 73 -170 205 -181
331 -30 653 -141 853 -294 156 -120 152 -119 277 -67 166 71 267 94 457 107
l174 11 26 31 c55 66 169 182 207 212 59 45 118 68 225 89 116 22 147 48 175
146 22 76 90 208 181 352 94 150 106 183 116 306 4 58 12 156 18 216 34 353
33 841 -1 1350 -15 224 -15 245 3 256 30 19 58 9 86 -30 15 -21 68 -83 117
-137 49 -55 112 -130 141 -169 45 -60 173 -207 558 -642 69 -77 87 -92 112
-92 32 0 65 19 65 37 0 11 -345 689 -373 734 -8 13 -81 146 -161 297 -151 282
-154 291 -106 306 29 9 123 -31 371 -162 280 -147 580 -289 812 -384 92 -38
178 -75 190 -83 32 -20 361 -136 416 -146 32 -6 72 -4 131 7 59 10 166 16 349
17 l265 3 15 24 c63 95 137 182 173 200 53 27 263 109 279 109 7 0 43 14 81
32 54 24 70 37 74 57 30 141 120 275 315 471 94 94 111 134 76 189 -41 67 -66
342 -48 536 13 147 56 321 107 435 54 122 47 187 -24 224 -29 15 -94 104 -107
146 -4 14 -14 35 -22 48 -23 37 -53 168 -64 282 -16 159 -19 170 -42 194 -12
12 -49 56 -81 97 -33 41 -81 97 -107 124 -91 96 -301 371 -345 452 -52 94 -87
128 -179 174 l-66 32 -340 -2 c-350 -2 -604 11 -649 34 -38 19 -60 49 -66 86
-5 31 1 42 66 119 80 96 118 170 160 315 38 132 50 203 50 294 0 42 7 119 15
171 12 83 12 112 -1 245 -18 170 -67 360 -113 435 -58 94 -160 349 -211 525
-28 99 -65 218 -81 265 -20 58 -33 119 -38 185 -13 143 -37 333 -79 620 -30
204 -36 277 -36 395 1 164 11 210 95 466 45 138 49 159 49 247 0 52 -4 117
-10 144 -5 26 -17 95 -25 153 -24 159 -34 199 -73 275 -45 86 -124 168 -194
200 -129 59 -249 69 -358 31z m-165 -1143 c108 -24 237 -110 312 -208 80 -104
129 -238 148 -405 17 -138 8 -221 -35 -339 -39 -106 -70 -152 -133 -195 -129
-88 -234 -95 -374 -25 -141 70 -194 157 -197 319 -1 101 15 138 91 213 42 41
57 48 101 54 67 8 95 -10 116 -75 20 -59 14 -77 -36 -121 -73 -63 -87 -132
-44 -205 30 -51 65 -71 125 -71 113 0 224 147 251 332 8 57 6 81 -11 147 -27
105 -50 152 -108 218 -103 115 -283 158 -450 108 -68 -20 -80 -28 -156 -103
-51 -51 -93 -103 -110 -137 -15 -30 -52 -98 -81 -151 -30 -53 -110 -228 -179
-390 -103 -242 -124 -299 -119 -326 10 -52 25 -59 97 -42 34 7 112 14 172 14
l110 -1 97 -48 c116 -57 180 -121 232 -231 46 -96 60 -171 52 -275 -10 -118
-31 -174 -86 -222 -90 -80 -184 -109 -288 -88 -71 15 -102 31 -147 76 -58 58
-88 127 -91 214 -2 67 1 81 29 133 32 60 68 97 96 97 18 0 82 -37 93 -54 12
-18 9 -47 -13 -117 -21 -66 -21 -69 -4 -114 21 -54 41 -67 100 -67 91 0 151
71 171 198 7 44 -10 143 -31 185 -48 92 -173 179 -271 187 -142 12 -225 -27
-374 -178 -194 -194 -322 -415 -395 -680 -40 -145 -53 -170 -86 -170 -47 0
-59 22 -53 98 10 127 56 427 75 486 10 33 19 69 19 80 1 12 8 39 16 61 9 22
19 69 24 105 18 137 171 542 339 895 77 160 215 398 274 472 78 98 222 233
248 233 12 0 35 15 53 34 34 36 108 67 216 90 70 15 106 13 215 -11z m555
-1395 c16 -17 20 -35 20 -84 0 -84 -11 -109 -54 -124 -51 -16 -85 3 -114 64
-27 57 -23 91 15 136 20 25 32 30 68 30 33 0 50 -6 65 -22z m93 -437 l42 -40
0 -86 c0 -80 -2 -87 -25 -105 -65 -50 -125 -32 -168 51 -39 73 -18 174 42 203
47 23 63 20 109 -23z m211 -527 c16 -11 19 -27 20 -93 1 -78 0 -81 -33 -115
-44 -45 -62 -51 -101 -31 -70 36 -112 169 -74 235 10 17 28 33 39 35 68 15 95
9 149 -31z m58 -433 c30 -11 48 -67 48 -149 0 -53 -4 -65 -32 -100 -81 -101
-191 -47 -190 93 0 121 80 192 174 156z m-31 -537 c36 -34 59 -146 40 -192
-21 -50 -51 -71 -105 -73 -40 -2 -52 1 -67 20 -49 61 -48 156 2 236 29 45 32
47 66 42 20 -4 49 -18 64 -33z m724 -947 c25 -21 26 -27 20 -71 -7 -45 -10
-50 -53 -68 -61 -27 -127 -20 -159 17 -31 35 -29 53 10 96 38 43 48 47 109 48
35 1 54 -5 73 -22z m372 -164 c46 -35 73 -91 73 -150 -1 -65 -18 -85 -77 -90
-43 -4 -53 -1 -95 31 -40 31 -50 46 -64 93 -20 68 -11 92 46 131 40 27 66 24
117 -15z m-8132 -38 c233 -8 348 -19 520 -51 204 -37 492 -101 555 -123 30
-11 87 -29 126 -40 67 -19 72 -23 76 -52 4 -23 -1 -34 -20 -50 -14 -11 -32
-17 -41 -15 -114 33 -482 40 -646 12 -133 -22 -251 -58 -360 -111 -102 -49
-151 -92 -200 -177 -62 -105 -59 -247 7 -348 51 -77 163 -130 276 -130 74 0
115 18 142 63 25 40 25 58 0 107 -28 54 -62 70 -134 63 -46 -5 -60 -3 -77 13
-31 27 -39 57 -31 106 7 39 11 44 52 60 57 22 107 22 167 2 98 -33 159 -98
188 -198 25 -86 21 -144 -14 -213 -113 -223 -378 -231 -587 -18 -80 82 -113
143 -124 230 -5 33 -12 75 -16 93 -8 39 18 144 52 214 13 26 49 71 79 101 62
60 71 96 32 122 -36 23 -279 38 -586 37 -394 -3 -488 -17 -603 -95 -70 -47
-148 -151 -169 -224 -6 -24 -12 -85 -12 -136 -1 -88 1 -96 37 -164 57 -109
104 -151 216 -196 131 -52 201 -62 285 -41 83 21 125 49 141 94 28 77 8 144
-54 185 -59 39 -102 43 -154 12 -55 -32 -88 -26 -129 21 -27 30 -30 41 -26 74
5 38 55 108 87 123 44 19 139 17 212 -5 64 -19 84 -30 127 -74 67 -68 101
-156 101 -263 0 -67 -4 -84 -35 -147 -40 -80 -121 -158 -184 -177 -102 -30
-261 -16 -372 34 -72 32 -245 162 -294 221 -22 26 -54 64 -71 84 -38 45 -89
143 -103 197 -17 63 -13 215 6 275 24 75 109 197 168 243 89 68 243 143 380
185 178 55 204 60 431 72 109 6 201 14 204 17 3 3 48 2 100 -1 52 -3 176 -8
275 -11z m8412 -275 c18 -11 46 -41 63 -67 28 -44 30 -54 28 -121 -3 -64 -7
-76 -28 -93 -31 -23 -88 -25 -118 -3 -13 9 -37 34 -53 57 -52 71 -36 196 29
231 35 20 41 20 79 -4z m-4610 -8 c19 -12 33 -59 33 -108 0 -59 -40 -104 -93
-104 -51 0 -97 54 -97 113 1 53 18 75 72 92 50 16 69 17 85 7z m2289 -382
c294 -24 618 -159 766 -320 148 -161 212 -384 159 -557 -34 -113 -78 -164
-183 -213 -240 -112 -580 -22 -722 193 -46 70 -56 98 -56 164 0 89 43 141 144
173 54 17 104 14 156 -9 125 -57 142 -129 37 -151 -60 -12 -81 -36 -75 -85 2
-21 15 -38 46 -59 36 -26 55 -31 115 -34 68 -4 75 -2 122 30 90 60 127 176 84
264 -47 98 -114 151 -256 203 -72 26 -96 29 -303 40 -124 7 -266 17 -317 22
-51 6 -177 14 -280 18 -108 4 -197 13 -210 19 -25 14 -47 73 -39 106 9 37 119
102 229 136 134 40 197 53 312 60 66 4 125 8 131 8 6 1 69 -3 140 -8z m2567
-52 c14 -19 21 -47 24 -100 3 -63 1 -79 -19 -113 -14 -24 -38 -47 -62 -59 -35
-17 -41 -17 -70 -4 -35 17 -66 87 -66 148 1 55 39 122 84 146 46 26 81 20 109
-18z m-4326 -174 c63 -22 121 -71 134 -115 11 -35 8 -118 -6 -171 -10 -38 1
-75 25 -81 11 -3 42 2 70 10 50 15 51 14 86 -12 22 -17 46 -51 65 -93 30 -65
31 -69 19 -129 -7 -34 -9 -70 -6 -80 3 -10 36 -32 76 -50 82 -37 100 -66 100
-159 0 -46 5 -62 28 -93 58 -73 80 -123 71 -157 -5 -17 -16 -37 -24 -44 -26
-22 -212 -42 -270 -29 -83 19 -132 79 -115 140 16 56 12 96 -11 113 -12 8 -48
23 -81 33 -44 13 -67 26 -85 49 -29 39 -25 62 25 146 39 66 43 99 15 136 -24
32 -88 42 -125 19 -13 -8 -42 -17 -64 -21 -53 -8 -90 19 -100 71 -5 28 -1 47
20 88 58 115 12 193 -121 208 -59 7 -133 41 -133 61 0 17 58 69 108 96 20 11
44 24 52 29 51 28 69 35 100 42 59 11 97 10 147 -7z m4460 -357 c39 -38 20
-186 -30 -244 -39 -44 -91 -46 -129 -5 -57 59 -44 158 28 231 40 40 47 43 81
38 20 -4 43 -12 50 -20z m-9174 -315 c31 -32 57 -66 57 -75 0 -25 -45 -67 -70
-67 -54 0 -150 78 -150 122 0 11 9 33 21 49 34 49 73 41 142 -29z m9065 -184
c5 -7 16 -32 22 -55 12 -41 11 -45 -25 -117 -43 -83 -67 -102 -118 -92 -49 9
-70 37 -75 101 -4 43 0 61 18 90 38 61 150 107 178 73z m-8721 -39 c57 -28 86
-70 91 -133 5 -62 -11 -81 -67 -80 -59 2 -117 38 -157 98 -38 57 -39 81 -6
119 21 24 85 22 139 -4z m3677 -200 l20 -37 -44 -98 c-23 -55 -79 -175 -123
-269 -43 -93 -94 -212 -113 -263 -19 -51 -42 -109 -53 -130 -10 -20 -35 -85
-55 -143 -29 -84 -36 -121 -36 -180 0 -170 61 -291 163 -325 74 -24 143 -20
190 13 62 43 94 88 106 154 11 54 10 64 -6 92 -33 55 -110 54 -148 -3 -31 -47
-53 -48 -92 -6 -38 42 -42 79 -16 158 16 51 81 126 133 152 108 56 216 1 297
-151 39 -73 43 -86 49 -183 7 -121 3 -146 -62 -310 -51 -129 -60 -142 -126
-188 -27 -17 -69 -47 -95 -64 -46 -32 -52 -33 -143 -33 -93 0 -97 1 -195 49
-61 29 -121 68 -155 98 -50 46 -116 142 -142 208 -79 195 -74 528 11 781 87
260 303 557 501 690 62 42 108 38 134 -12z m-3279 -171 c111 -73 128 -179 35
-218 -27 -11 -34 -10 -68 13 -20 13 -58 45 -84 71 -58 55 -64 94 -21 138 36
38 75 37 138 -4z m8212 -170 c27 -25 29 -58 6 -96 -69 -111 -174 -154 -229
-95 -21 23 -24 34 -19 63 8 48 54 112 95 132 51 25 118 23 147 -4z m-7797
-103 c36 -19 80 -75 80 -103 0 -85 -87 -130 -168 -88 -40 21 -112 102 -112
126 0 24 18 61 34 72 20 14 136 9 166 -7z m445 -180 c20 -8 49 -29 66 -47 26
-29 29 -38 23 -73 -9 -58 -37 -85 -83 -79 -70 9 -106 26 -133 62 -75 96 9 187
127 137z m6912 -127 c45 -42 27 -93 -52 -144 -66 -41 -139 -48 -170 -14 -21
24 -15 42 41 128 l35 52 61 0 c50 0 66 -4 85 -22z m-446 -307 c21 -16 22 -23
14 -56 -12 -47 -62 -77 -131 -77 -54 0 -94 30 -94 71 0 31 7 42 40 64 35 24
140 23 171 -2z m-5930 -558 c9 -9 14 -40 14 -75 0 -55 -3 -62 -33 -89 -37 -33
-51 -35 -92 -14 -45 23 -51 103 -13 162 23 35 100 45 124 16z m-9 -425 c9 -7
28 -31 42 -52 21 -31 26 -51 26 -98 0 -77 -19 -114 -61 -120 -27 -4 -40 1 -77
36 -60 55 -85 110 -71 159 18 66 98 108 141 75z m189 -437 c52 -35 74 -70 82
-131 7 -57 -13 -88 -65 -96 -49 -8 -98 22 -143 89 -44 65 -46 108 -9 142 36
34 80 32 135 -4z m282 -345 c44 -19 93 -74 100 -113 5 -27 1 -36 -29 -62 -41
-37 -87 -40 -151 -12 -44 20 -93 84 -93 120 0 10 13 33 29 50 23 25 37 31 70
31 23 0 56 -6 74 -14z m2546 -70 c20 -21 22 -31 16 -63 -8 -45 -41 -91 -83
-115 -29 -17 -31 -17 -63 5 -55 37 -52 87 10 164 33 42 85 46 120 9z m-444
-252 c18 -7 45 -55 45 -79 0 -51 -123 -145 -188 -145 -49 0 -82 35 -82 87 0
41 66 118 114 132 38 11 89 13 111 5z m-1655 -42 c69 -34 88 -67 71 -123 -14
-47 -35 -59 -98 -59 -56 0 -121 33 -140 70 -14 28 -17 88 -5 107 11 17 51 32
87 32 17 0 55 -12 85 -27z m554 -132 c27 -27 29 -32 20 -67 -11 -48 -57 -73
-132 -73 -91 0 -152 40 -152 100 0 60 50 82 165 74 61 -4 74 -8 99 -34z m565
-84 c31 -28 36 -71 12 -105 -51 -71 -224 -84 -265 -19 -18 30 37 105 101 134
38 18 128 12 152 -10z"/>
</g>
</svg>
